# AST/ASF file generated using VICON BodyLanguage
# -----------------------------------------------
:version 1.10
:name VICON
:units
  mass 1.0
  length 0.45
  angle deg
:documentation
   .ast/.asf automatically generated from VICON data using
   VICON BodyBuilder and BodyLanguage model FoxedUp or BRILLIANT.MOD
:root
   order TX TY TZ RX RY RZ
   axis XYZ
   position 0 0 0  
   orientation 0 0 0 
:bonedata
  begin
     id 1 
     name lhipjoint
     direction 0.62366 -0.717238 0.310833 
     length 2.53602 
     axis 0 0 0  XYZ
  end
  begin
     id 2 
     name lfemur
     direction 0.34202 -0.939693 0  
     length 7.40817  
     axis 0 0 20  XYZ
    dof rx ry rz
    limits (-160.0 20.0)
           (-70.0 70.0)
           (-60.0 70.0)
  end
  begin
     id 3 
     name ltibia
     direction 0.34202 -0.939693 0   
     length 7.7045   
     axis 0 0 20   XYZ
    dof rx
    limits (-10.0 170.0)
  end
  begin
     id 4 
     name lfoot
     direction 0.0673888 -0.185149 0.980397   
     length 2.09456   
     axis -90 7.62852e-016 20   XYZ
    dof rx rz
    limits (-45.0 90.0)
           (-70.0 20.0)
  end
  begin
     id 5 
     name ltoes
     direction 1.53575e-011 -4.21994e-011 1   
     length 1.05543   
     axis -90 7.62852e-016 20   XYZ
    dof rx
    limits (-90.0 20.0)
  end
  begin
     id 6 
     name rhipjoint
     direction -0.489018 -0.800347 0.346851   
     length 2.27268  
     axis 0 0 0  XYZ 
  end
  begin
     id 7 
     name rfemur
     direction -0.34202 -0.939693 0   
     length 7.55487   
     axis 0 0 -20   XYZ
    dof rx ry rz
    limits (-160.0 20.0)
           (-70.0 70.0)
           (-70.0 60.0)
  end
  begin
     id 8 
     name rtibia
     direction -0.34202 -0.939693 0   
     length 7.78969   
     axis 0 0 -20   XYZ
    dof rx
    limits (-10.0 170.0)
 end
 begin
     id 9 
     name rfoot
     direction -0.0859318 -0.236096 0.967923   
     length 2.19143  
     axis -90 -7.62852e-016 -20   XYZ
    dof rx rz
    limits (-45.0 90.0)
           (-20.0 70.0)
  end
  begin
     id 10 
     name rtoes
     direction -1.53538e-011 -4.21989e-011 1   
     length 1.09845   
     axis -90 -7.62852e-016 -20   XYZ
    dof rx
    limits (-90.0 20.0)
  end
  begin
     id 11 
     name lowerback
     direction -0.00762546 0.998978 -0.0445553   
     length 1.98161   
     axis 0 0 0   XYZ
    dof rx ry rz
    limits (-20.0 45.0)
           (-30.0 30.0)
           (-30.0 30.0)
  end
  begin
     id 12 
     name upperback
     direction 0.0422361 0.998867 -0.0219156   
     length 1.97558   
     axis 0 0 0   XYZ
    dof rx ry rz
    limits (-20.0 45.0)
           (-30.0 30.0)
           (-30.0 30.0)
  end
  begin
     id 13 
     name thorax
     direction 0.0442465 0.999021 7.47603e-005   
     length 1.97799   
     axis 0 0 0   XYZ
    dof rx ry rz
    limits (-20.0 45.0)
           (-30.0 30.0)
           (-30.0 30.0)
  end
  begin
     id 14 
     name lowerneck
     direction 0.00312169 0.984641 0.174564   
     length 1.78995   
     axis 0 0 0   XYZ
    dof rx ry rz
    limits (-20.0 45.0)
           (-30.0 30.0)
           (-30.0 30.0)
  end
  begin
     id 15 
     name upperneck
     direction -0.0383028 0.985255 -0.166749   
     length 1.83053   
     axis 0 0 0   XYZ
    dof rx ry rz
    limits (-20.0 45.0)
           (-30.0 30.0)
           (-30.0 30.0)
  end
  begin
     id 16
     name head
     direction -0.0129546 0.997059 -0.0755386  
     length 1.84088  
     axis 0 0 0   XYZ
    dof rx ry rz
    limits (-20.0 45.0)
           (-30.0 30.0)
           (-30.0 30.0)
  end
  begin
     id 17 
     name lclavicle
     direction 0.912857 0.370519 -0.171488  
     length 3.51279  
     axis 0 0 0   XYZ
    dof ry rz
    limits (-20.0 10.0)
           (0.0 20.0)
  end
  begin
     id 18 
     name lhumerus
     direction 1 -4.48962e-011 3.64361e-027   
     length 4.95663   
     axis 180 -30 -90   XYZ
    dof rx ry rz
    limits (-60.0 90.0)
           (-90.0 90.0)
           (-90.0 90.0)
  end
  begin
     id 19
     name lradius
     direction 1 -4.48974e-011 5.97202e-027   
     length 3.38177   
     axis 180 -30 -90   XYZ
    dof rx
    limits (-10.0 170.0)
  end
  begin
     id 20
     name lwrist
     direction 1 -4.4896e-011 9.83288e-027   
     length 1.69088   
     axis -9.31221e-015 90 90   XYZ
    dof ry
    limits (-180.0 0.0)
 end
  begin
     id 21 
     name lhand
     direction 1 -4.4902e-011 1.96551e-026   
     length 0.662909   
     axis -1.25475e-014 90 90   XYZ
    dof rx rz
    limits (-90.0 90.0)
           (-45.0 45.0)
  end
  begin
     id 22 
     name lfingers
     direction 1 -4.48971e-011 3.93277e-026   
     length 0.534454   
     axis -2.50945e-014 90 90   XYZ
    dof rx
    limits (0.0 90.0)
  end
  begin
     id 23
     name lthumb
     direction 0.707107 -6.34933e-011 0.707107   
     length 0.767373   
     axis -90 45 -4.80359e-014   XYZ
    dof rx rz
    limits (-45.0 45.0)
           (-45.0 45.0)
  end
  begin
     id 24 
     name rclavicle
     direction -0.900919 0.395364 -0.178976   
     length 3.40627  
     axis 0 0 0   XYZ 
    dof ry rz
    limits (-10.0 20.0)
           (-20.0 0.0)
  end
  begin
     id 25 
     name rhumerus
     direction -1 -4.48969e-011 1.03875e-027  
     length 5.08365   
     axis 180 30 90   XYZ
    dof rx ry rz
    limits (-90.0 60.0)
           (-90.0 90.0)
           (-90.0 90.0)
  end
  begin
     id 26 
     name rradius
     direction -1 -4.48951e-011 5.02733e-027   
     length 3.35984   
     axis 180 30 90   XYZ
    dof rx
    limits (-10.0 170.0)
  end
  begin
     id 27 
     name rwrist
     direction -1 -4.49011e-011 9.82828e-027   
     length 1.67992   
     axis -9.31221e-015 -90 -90   XYZ
    dof ry
    limits (-180.0 0.0)
  end
  begin
     id 28
     name rhand
     direction -1 -4.48894e-011 1.96774e-026   
     length 0.820764   
     axis -1.25475e-014 -90 -90   XYZ
    dof rx rz
    limits (-90.0 90.0)
           (-45.0 45.0)
  end
  begin
     id 29
     name rfingers
     direction -1 -4.49095e-011 3.92833e-026   
     length 0.661721   
     axis -2.50945e-014 -90 -90   XYZ
    dof rx
    limits (0.0 90.0)
  end
  begin
     id 30
     name rthumb
     direction -0.707107 -6.34881e-011 0.707107   
     length 0.950103   
     axis -90 -45 4.80359e-014   XYZ
    dof rx rz
    limits (-45.0 45.0)
           (-45.0 45.0)
  end
:hierarchy
  begin
    root lhipjoint rhipjoint lowerback
    lhipjoint lfemur
    lfemur ltibia
    ltibia lfoot
    lfoot ltoes
    rhipjoint rfemur
    rfemur rtibia
    rtibia rfoot
    rfoot rtoes
    lowerback upperback
    upperback thorax
    thorax lowerneck lclavicle rclavicle
    lowerneck upperneck
    upperneck head
    lclavicle lhumerus
    lhumerus lradius
    lradius lwrist
    lwrist lhand lthumb
    lhand lfingers
    rclavicle rhumerus
    rhumerus rradius
    rradius rwrist
    rwrist rhand rthumb
    rhand rfingers
  end

#!OML:ASF I:\golf\golf\golf 2\Subject 1\2002-09-07\Subject1.ASF
:FULLY-SPECIFIED
:DEGREES
126
root -6.60866 17.7443 1.48011 -6.82754 54.6989 -22.9218
lowerback 1.18004 -2.96065 -9.88209
upperback 4.28633 -3.79217 0.266227
thorax 4.51239 -2.24703 5.68283
lowerneck -10.1467 13.5933 4.42895
upperneck 29.1011 22.3346 -9.39486
head 13.0753 9.40594 -0.894438
rclavicle 4.13472e-014 3.18055e-015
rhumerus -11.2622 -3.27692 -96.8816
rradius 63.8003
rwrist -61.448
rhand -49.9906 -0.801233
rfingers 7.12502
rthumb -22.5801 -29.5007
lclavicle 4.13472e-014 3.18055e-015
lhumerus 83.1308 -72.1594 20.6814
lradius 25.4229
lwrist 13.1055
lhand 2.46131 40.4656
lfingers 7.12502
lthumb -152.054 -111.594
rfemur -31.3745 7.64815 27.1429
rtibia 25.6341
rfoot -5.89454 13.6919
rtoes 11.7236
lfemur -14.4739 18.8001 4.23197
ltibia 33.9917
lfoot -12.2464 17.923
ltoes -25.8428
127
root -6.62512 17.729 1.61979 -7.78278 52.7784 -23.421
lowerback 0.918081 -2.87001 -10.9067
upperback 4.44971 -3.62706 0.505099
thorax 4.91029 -2.23774 6.49832
lowerneck -9.70334 14.083 4.47282
upperneck 28.568 23.0035 -9.62425
head 12.8644 9.72064 -0.91066
rclavicle 2.70347e-014 -2.22639e-014
rhumerus -11.0133 -3.91353 -96.5544
rradius 65.1842
rwrist -60.9632
rhand -50.6851 1.22914
rfingers 7.12502
rthumb -23.2466 -27.3877
lclavicle 2.70347e-014 -2.22639e-014
lhumerus 80.6072 -71.4244 24.3924
lradius 25.0249
lwrist 10.6119
lhand 2.64704 38.9757
lfingers 7.12502
lthumb -151.877 -113.113
rfemur -30.3369 9.53925 28.3642
rtibia 25.6749
rfoot -5.92676 13.5736
rtoes 13.1185
lfemur -12.3995 20.5532 6.13944
ltibia 33.9079
lfoot -11.6709 17.1416
ltoes -27.4882
128
root -6.59853 17.7509 1.61654 -7.82788 53.4427 -23.5037
lowerback 1.37159 -3.65601 -10.1643
upperback 4.24046 -4.73596 0.15651
thorax 4.54016 -2.72351 5.68449
lowerneck -9.45493 14.5295 4.57941
upperneck 28.2496 23.6373 -9.83185
head 12.7886 10.006 -0.912513
rclavicle 0 -5.725e-014
rhumerus -10.7393 -4.59685 -96.2522
rradius 66.6041
rwrist -60.0675
rhand -51.2536 2.86259
rfingers 7.12502
rthumb -23.7919 -25.6843
lclavicle 0 -5.725e-014
lhumerus 79.0702 -70.7051 27.0765
lradius 24.6187
lwrist 8.55756
lhand 3.83694 38.1507
lfingers 7.12502
lthumb -150.74 -114.131
rfemur -30.3444 8.07809 28.4786
rtibia 25.6155
rfoot -5.83293 14.4595
rtoes 13.9558
lfemur -12.9382 19.4556 5.81272
ltibia 33.967
lfoot -10.5111 17.8269
ltoes -30.1032
129
root -6.58161 17.7671 1.65966 -6.3308 53.0546 -21.8352
lowerback 1.22687 -4.0494 -11.1609
upperback 4.01854 -5.22639 -0.25756
thorax 4.54016 -2.98126 5.76662
lowerneck -9.14544 14.9401 4.58561
upperneck 27.7831 24.204 -10.0499
head 12.6236 10.2667 -0.926048
rclavicle -1.90833e-014 6.36111e-015
rhumerus -10.5381 -5.20466 -95.8947
rradius 68.1503
rwrist -59.037
rhand -52.366 3.34868
rfingers 7.12502
rthumb -24.8583 -25.0552
lclavicle -1.90833e-014 6.36111e-015
lhumerus 80.6785 -69.9961 26.3876
lradius 24.4851
lwrist 7.7734
lhand 2.29535 34.6405
lfingers 7.12502
lthumb -152.213 -117.394
rfemur -30.2975 7.99636 27.705
rtibia 25.5412
rfoot -5.67728 15.2805
rtoes 14.9866
lfemur -12.6978 19.3105 4.9318
ltibia 34.0139
lfoot -9.87082 18.2364
ltoes -31.7353
130
root -6.56882 17.7735 1.71895 -5.51 52.3639 -20.891
lowerback 1.02757 -4.35593 -11.9127
upperback 3.82247 -5.60137 -0.49717
thorax 4.57523 -3.17938 5.89362
lowerneck -8.70718 15.3681 4.55566
upperneck 27.1841 24.7818 -10.3034
head 12.3842 10.544 -0.960959
rclavicle -5.24792e-014 6.36111e-014
rhumerus -10.3234 -5.72087 -95.5398
rradius 69.5575
rwrist -58.0222
rhand -53.7089 4.92134
rfingers 7.12502
rthumb -26.1446 -23.2986
lclavicle -5.24792e-014 6.36111e-014
lhumerus 83.848 -69.2308 23.8691
lradius 24.6031
lwrist 7.96263
lhand 0.726646 31.9763
lfingers 7.12502
lthumb -153.714 -119.825
rfemur -30.0601 8.19403 27.4748
rtibia 25.4059
rfoot -5.17243 16.0406
rtoes 17.8222
lfemur -12.2084 19.3775 4.7598
ltibia 34.1411
lfoot -9.39232 18.3593
ltoes -32.563
131
root -6.55778 17.7799 1.78199 -5.42122 51.7714 -20.6961
lowerback 1.0012 -4.71802 -12.1458
upperback 3.64535 -6.08274 -0.656549
thorax 4.50488 -3.40964 5.82409
lowerneck -8.29556 15.8046 4.52205
upperneck 26.6848 25.3698 -10.4873
head 12.1835 10.8274 -0.967092
rclavicle 4.13472e-014 -3.49861e-014
rhumerus -10.1656 -6.09673 -95.2374
rradius 70.9689
rwrist -56.7658
rhand -54.965 6.48604
rfingers 7.12502
rthumb -27.3467 -21.5502
lclavicle 4.13472e-014 -3.49861e-014
lhumerus 86.5889 -68.4098 21.5818
lradius 24.8378
lwrist 8.55485
lhand 0.0747565 30.7328
lfingers 7.12502
lthumb -154.338 -120.977
rfemur -29.7819 8.31269 27.7608
rtibia 25.458
rfoot -4.85183 16.5459
rtoes 19.8444
lfemur -11.5911 19.2911 5.12748
ltibia 34.1768
lfoot -9.08787 18.3184
ltoes -32.6282
132
root -6.5421 17.7893 1.83787 -5.24462 51.3566 -20.3471
lowerback 1.03842 -5.10265 -12.4466
upperback 3.48901 -6.6003 -0.8097
thorax 4.43835 -3.66043 5.7979
lowerneck -7.9472 16.202 4.41406
upperneck 26.1848 25.9009 -10.6504
head 11.9785 11.0812 -0.96338
rclavicle 2.78299e-014 -2.54444e-014
rhumerus -9.97438 -6.50145 -94.7999
rradius 72.4527
rwrist -55.1846
rhand -55.8028 5.15786
rfingers 7.12502
rthumb -28.1477 -22.7493
lclavicle 2.78299e-014 -2.54444e-014
lhumerus 86.053 -67.7319 23.193
lradius 24.6985
lwrist 7.78811
lhand -0.262701 29.2405
lfingers 7.12502
lthumb -154.661 -122.423
rfemur -29.4994 8.0215 28.0114
rtibia 25.4944
rfoot -5.05272 17.1665
rtoes 18.8787
lfemur -11.0081 19.3825 5.29275
ltibia 34.239
lfoot -8.67757 18.0567
ltoes -33.4242
133
root -6.52435 17.7951 1.8932 -5.11012 51.0373 -20.009
lowerback 1.07897 -5.47913 -12.7545
upperback 3.3877 -7.10384 -0.945324
thorax 4.43166 -3.90966 5.78969
lowerneck -7.74273 16.5743 4.29105
upperneck 25.7157 26.4 -10.8121
head 11.8106 11.3112 -0.949406
rclavicle 5.08889e-014 4.77083e-014
rhumerus -9.52595 -7.06913 -94.3468
rradius 73.7373
rwrist -53.5058
rhand -56.6098 6.87044
rfingers 7.12502
rthumb -28.9188 -20.9072
lclavicle 5.08889e-014 4.77083e-014
lhumerus 83.786 -67.0998 26.9846
lradius 24.3009
lwrist 5.78458
lhand -1.06955 27.1764
lfingers 7.12502
lthumb -155.434 -124.38
rfemur -29.2007 7.59824 28.2652
rtibia 25.5585
rfoot -5.45763 17.7802
rtoes 17.2298
lfemur -10.3924 19.4962 5.49002
ltibia 34.2543
lfoot -8.05355 17.522
ltoes -35.0933
134
root -6.50448 17.8036 1.94041 -5.05499 50.8933 -19.9129
lowerback 1.09977 -5.9103 -12.6369
upperback 3.26007 -7.68226 -1.14256
thorax 4.35295 -4.17559 5.48181
lowerneck -7.54869 16.9211 4.25118
upperneck 25.2107 26.8443 -10.9953
head 11.6428 11.5247 -0.961795
rclavicle -2.8625e-014 3.49861e-014
rhumerus -8.98224 -7.7312 -93.9925
rradius 74.9502
rwrist -51.9559
rhand -56.9556 8.65283
rfingers 7.12502
rthumb -29.2491 -19.0678
lclavicle -2.8625e-014 3.49861e-014
lhumerus 87.2594 -66.1959 24.0039
lradius 24.8197
lwrist 6.01777
lhand -2.37735 26.5179
lfingers 7.12502
lthumb -156.689 -124.874
rfemur -29.0369 7.31522 28.4653
rtibia 25.6071
rfoot -5.59766 18.0161
rtoes 17.383
lfemur -10.1499 18.7625 5.75188
ltibia 34.2414
lfoot -7.64064 17.378
ltoes -34.9456
135
root -6.49556 17.8091 2.02563 -4.89098 50.0333 -19.6897
lowerback 0.69986 -6.13145 -13.101
upperback 3.17423 -7.91219 -1.22332
thorax 4.59099 -4.30795 5.5812
lowerneck -7.2809 17.2709 4.17579
upperneck 24.6176 27.2893 -11.2267
head 11.4326 11.7433 -0.996344
rclavicle 6.67916e-014 -6.36111e-015
rhumerus -8.51488 -8.23785 -93.6051
rradius 76.3475
rwrist -50.7393
rhand -57.3166 9.93155
rfingers 7.12502
rthumb -29.5937 -17.7285
lclavicle 6.67916e-014 -6.36111e-015
lhumerus 90.1059 -65.2355 21.608
lradius 25.4309
lwrist 6.11
lhand -3.92678 26.1182
lfingers 7.12502
lthumb -158.176 -125.092
rfemur -28.7036 7.99742 28.7253
rtibia 25.5968
rfoot -5.816 17.8926
rtoes 16.9625
lfemur -9.48175 18.8 6.27804
ltibia 34.2047
lfoot -7.30489 17.299
ltoes -33.7647
136
root -6.48119 17.819 2.09664 -4.91346 49.4439 -19.531
lowerback 0.596196 -6.43656 -13.3969
upperback 3.10654 -8.29841 -1.28845
thorax 4.69148 -4.50695 5.62251
lowerneck -7.15547 17.6432 3.90602
upperneck 24.0993 27.7673 -11.3253
head 11.2316 11.9644 -0.948058
rclavicle -8.34896e-015 -1.59028e-014
rhumerus -8.01756 -8.5545 -93.1525
rradius 77.766
rwrist -49.5113
rhand -57.7804 11.1749
rfingers 7.12502
rthumb -30.0363 -16.4058
lclavicle -8.34896e-015 -1.59028e-014
lhumerus 85.8322 -64.893 27.7654
lradius 24.7244
lwrist 3.10696
lhand -5.96054 24.1106
lfingers 7.12502
lthumb -160.13 -126.885
rfemur -28.2356 8.32886 28.9936
rtibia 25.5343
rfoot -5.74988 18.1412
rtoes 17.3065
lfemur -8.86359 18.7629 6.6687
ltibia 34.1932
lfoot -6.83542 17.3693
ltoes -33.2301
137
root -6.46577 17.8284 2.15813 -5.06716 49.0453 -19.4394
lowerback 0.717765 -6.74244 -13.4751
upperback 3.0464 -8.71935 -1.44224
thorax 4.63146 -4.70543 5.47927
lowerneck -7.13633 17.9498 3.70726
upperneck 23.6682 28.1251 -11.3135
head 11.0638 12.1382 -0.881711
rclavicle 5.56597e-014 5.725e-014
rhumerus -7.44175 -8.93429 -92.7275
rradius 79.0184
rwrist -48.0701
rhand -58.3317 12.6641
rfingers 7.12502
rthumb -30.5623 -14.8199
lclavicle 5.56597e-014 5.725e-014
lhumerus 82.5605 -64.4834 32.8104
lradius 24.0879
lwrist 0.656042
lhand -8.12352 22.0323
lfingers 7.12502
lthumb -162.21 -128.761
rfemur -27.7303 8.4852 29.2502
rtibia 25.4865
rfoot -5.24857 18.7208
rtoes 19.8616
lfemur -8.29807 18.5412 7.0264
ltibia 34.2443
lfoot -6.08747 17.3817
ltoes -34.1896
138
root -6.45595 17.8337 2.22791 -4.91657 48.2958 -19.1474
lowerback 0.615042 -6.92652 -13.7604
upperback 2.89849 -8.94839 -1.57367
thorax 4.60236 -4.8131 5.46567
lowerneck -7.04668 18.2044 3.62845
upperneck 23.3168 28.4401 -11.3913
head 10.9442 12.2919 -0.867508
rclavicle 1.05356e-013 -3.18055e-014
rhumerus -6.89453 -9.25086 -92.2036
rradius 80.2889
rwrist -46.6356
rhand -58.8966 14.5085
rfingers 7.12502
rthumb -31.1008 -12.8737
lclavicle 1.05356e-013 -3.18055e-014
lhumerus 81.8532 -63.9357 34.7431
lradius 24.1775
lwrist -0.954939
lhand -9.18589 20.5673
lfingers 7.12502
lthumb -163.233 -130.137
rfemur -27.3298 8.81253 29.4756
rtibia 25.3645
rfoot -4.89353 19.3044
rtoes 21.4027
lfemur -7.69462 18.7622 7.38106
ltibia 34.4559
lfoot -5.34835 17.1149
ltoes -35.9012
